<svg width="17" height="22" viewBox="0 0 17 22" fill="none" xmlns="http://www.w3.org/2000/svg">
<path d="M11.0537 4.49918H1.75678C0.885074 4.49918 0.175781 5.20847 0.175781 6.08018V19.419C0.175781 20.2907 0.885074 21 1.75678 21H11.0537C11.9254 21 12.6347 20.2907 12.6347 19.419V6.08018C12.6306 5.20641 11.9233 4.49918 11.0537 4.49918ZM11.5265 19.4149C11.5265 19.676 11.3127 19.8898 11.0516 19.8898H1.75267C1.49157 19.8898 1.27775 19.676 1.27775 19.4149V6.08018C1.27775 5.81908 1.49157 5.60526 1.75267 5.60526H11.0495C11.3106 5.60526 11.5245 5.81908 11.5245 6.08018V19.4149H11.5265ZM16.1894 2.581V15.9198C16.1894 16.7915 15.4801 17.5008 14.6083 17.5008C14.302 17.5008 14.0553 17.2541 14.0553 16.9478C14.0553 16.6414 14.302 16.3947 14.6083 16.3947C14.8694 16.3947 15.0833 16.1809 15.0833 15.9198V2.581C15.0833 2.3199 14.8694 2.10609 14.6083 2.10609H5.31353C5.05243 2.10609 4.83861 2.3199 4.83861 2.581C4.83861 2.88734 4.5919 3.13405 4.28557 3.13405C3.97924 3.13405 3.73252 2.88734 3.73252 2.581C3.73252 1.70929 4.44182 1 5.31353 1H14.6104C15.4821 1 16.1894 1.70929 16.1894 2.581Z" fill="#646567" stroke="#646567" stroke-width="0.3"/>
</svg>
