<svg width="72" height="42" viewBox="0 0 72 42" fill="none" xmlns="http://www.w3.org/2000/svg">
<path d="M71.1763 7.70565C71.1763 4.04094 68.1353 1 64.4706 1H21.1178C17.453 1 14.4121 4.04094 14.4121 7.70565V14.6452C14.4121 15.347 14.9579 15.8928 15.6597 15.8928C16.3614 15.8928 16.9072 15.347 16.9072 14.6452V7.70565C16.9072 6.84795 17.1412 6.06823 17.609 5.44445L42.0924 26.5751C42.3263 26.809 42.6382 26.8869 42.8722 26.8869C43.1061 26.8869 43.418 26.809 43.6519 26.5751L49.7337 21.2729L66.4979 37.9591C65.8741 38.271 65.1723 38.5049 64.4706 38.5049H21.1178C20.416 38.5049 19.8702 39.0507 19.8702 39.7524C19.8702 40.4542 20.416 41 21.1178 41H64.4706C66.3419 41 67.9794 40.2203 69.2269 39.0507C70.3965 37.8031 71.1763 36.1657 71.1763 34.3723V7.70565ZM42.7942 24.002L19.3244 3.80702C19.8702 3.5731 20.494 3.41715 21.1178 3.41715H64.4706C65.0944 3.41715 65.7182 3.5731 66.264 3.80702L49.11 18.6218C49.032 18.6218 49.032 18.6998 48.954 18.6998C48.954 18.6998 48.954 18.7778 48.876 18.7778L42.7942 24.002ZM68.0573 5.36647C68.4472 6.06823 68.7591 6.84796 68.7591 7.62768V34.2164C68.7591 34.9181 68.5252 35.6199 68.2133 36.2437L51.6051 19.6355L68.0573 5.36647Z" fill="black" stroke="black"/>
<path d="M35.8546 33.8257C35.8546 33.1239 35.3088 32.5781 34.607 32.5781H15.6597C14.9579 32.5781 14.4121 33.1239 14.4121 33.8257C14.4121 34.5274 14.9579 35.0732 15.6597 35.0732H34.685C35.3088 34.9953 35.8546 34.4495 35.8546 33.8257Z" fill="black" stroke="black"/>
<path d="M11.6825 32.5781H10.3569C9.65518 32.5781 9.10938 33.1239 9.10938 33.8257C9.10938 34.5274 9.65518 35.0732 10.3569 35.0732H11.6825C12.3842 35.0732 12.93 34.5274 12.93 33.8257C12.8521 33.1239 12.3063 32.5781 11.6825 32.5781Z" fill="black" stroke="black"/>
<path d="M22.5989 28.8374C22.5989 28.1357 22.0531 27.5898 21.3513 27.5898H7.47217C6.77042 27.5898 6.22461 28.1357 6.22461 28.8374C6.22461 29.5392 6.77042 30.085 7.47217 30.085H21.3513C22.0531 30.085 22.5989 29.5392 22.5989 28.8374Z" fill="black" stroke="black"/>
<path d="M3.49513 27.668H2.24756C1.54581 27.668 1 28.2138 1 28.9155C1 29.6173 1.54581 30.1631 2.24756 30.1631H3.5731C4.27485 30.1631 4.82066 29.6173 4.82066 28.9155C4.74269 28.1358 4.19688 27.668 3.49513 27.668Z" fill="black" stroke="black"/>
<path d="M27.0437 25.0928C27.7454 25.0928 28.2913 24.547 28.2913 23.8452C28.2913 23.1435 27.7454 22.5977 27.0437 22.5977H15.6597C14.9579 22.5977 14.4121 23.1435 14.4121 23.8452C14.4121 24.547 14.9579 25.0928 15.6597 25.0928H27.0437Z" fill="black" stroke="black"/>
<path d="M10.3569 25.0928H11.6825C12.3842 25.0928 12.93 24.547 12.93 23.8452C12.93 23.1435 12.3842 22.5977 11.6825 22.5977H10.3569C9.65518 22.5977 9.10938 23.1435 9.10938 23.8452C9.18735 24.547 9.73316 25.0928 10.3569 25.0928Z" fill="black" stroke="black"/>
</svg>
