<svg width="38" height="38" viewBox="0 0 38 38" fill="none" xmlns="http://www.w3.org/2000/svg">
<path d="M7.33633 37.002H26.943C30.5375 37.002 33.4785 34.061 33.4785 30.4664V18.4846C33.4785 17.8855 32.9884 17.3953 32.3893 17.3953C31.7902 17.3953 31.3 17.8855 31.3 18.4846V30.4664C31.3 32.8628 29.3393 34.8234 26.943 34.8234H7.33633C4.93996 34.8234 2.9793 32.8628 2.9793 30.4664V10.8598C2.9793 8.4634 4.93996 6.50273 7.33633 6.50273H19.3182C19.9173 6.50273 20.4074 6.01257 20.4074 5.41348C20.4074 4.81438 19.9173 4.32422 19.3182 4.32422H7.33633C3.74178 4.32422 0.800781 7.26521 0.800781 10.8598V30.4664C0.800781 34.061 3.74178 37.002 7.33633 37.002Z" fill="#0F141E" stroke="#0F141E"/>
<path d="M36.9644 12.0015V2.03479C36.9644 1.98033 36.9644 1.87141 36.9644 1.81694V1.76248C36.9644 1.70802 36.9644 1.65355 36.91 1.59909L36.8555 1.54463C36.8555 1.49017 36.8011 1.4357 36.8011 1.4357C36.7466 1.32678 36.6377 1.21785 36.4743 1.10893C36.4198 1.05446 36.3654 1.05446 36.3109 1.05446L36.1475 1H36.093C36.0386 1 35.9296 1 35.8752 1H25.9085C25.3094 1 24.8192 1.49017 24.8192 2.08926C24.8192 2.68835 25.3094 3.17852 25.9085 3.17852H33.261L17.3033 19.0272C16.8676 19.4629 16.8676 20.1165 17.3033 20.5522C17.739 20.9879 18.3926 20.9879 18.8283 20.5522L34.7859 4.64901V12.0015C34.7859 12.6006 35.2761 13.0908 35.8752 13.0908C36.4743 13.0908 36.9644 12.6006 36.9644 12.0015Z" fill="#0F141E" stroke="#0F141E"/>
</svg>
